<!-- Created with Inkscape (http://www.inkscape.org/) -->
<svg xmlns:rdf="http://www.w3.org/1999/02/22-rdf-syntax-ns#" xmlns="http://www.w3.org/2000/svg" version="1.1" xmlns:cc="http://creativecommons.org/ns#" xmlns:dc="http://purl.org/dc/elements/1.1/" viewBox="0 0 1200 350">
 <metadata>
  <rdf:RDF>
   <cc:Work rdf:about="">
    <dc:format>image/svg+xml</dc:format>
    <dc:type rdf:resource="http://purl.org/dc/dcmitype/StillImage"/>
    <dc:title/>
   </cc:Work>
  </rdf:RDF>
 </metadata>
 <g transform="translate(-245.05033,-415.40052)">
  <path fill="#000910" d="m353.14,624.87,0,140.53,300.5,0,0-131.44-63.625,0,0,93.438-64.656,0,0-59.094-64.656,0,0-43.438-107.56,0zm600,0,0,140.53,300.5,0,0-131.44-63.625,0,0,93.438-64.656,0,0-59.094-64.656,0,0-43.438-107.56,0zm-673,73.75,0,66.781,54.25,0,0-66.781-54.25,0zm600,0,0,66.781,54.25,0,0-66.781-54.25,0zm-162.84,16.156,0,50.625,64.156,0,0-50.625-64.156,0zm600,0,0,50.625,64.156,0,0-50.625-64.156,0z"/>
 </g>
</svg>
