<?xml version="1.0" encoding="UTF-8" standalone="no"?>
<!-- Created with Inkscape (http://www.inkscape.org/) -->

<svg
   xmlns:dc="http://purl.org/dc/elements/1.1/"
   xmlns:cc="http://creativecommons.org/ns#"
   xmlns:rdf="http://www.w3.org/1999/02/22-rdf-syntax-ns#"
   xmlns:svg="http://www.w3.org/2000/svg"
   xmlns="http://www.w3.org/2000/svg"
   xmlns:sodipodi="http://sodipodi.sourceforge.net/DTD/sodipodi-0.dtd"
   xmlns:inkscape="http://www.inkscape.org/namespaces/inkscape"
   width="141.68469"
   height="200"
   id="svg2"
   version="1.1"
   inkscape:version="0.48.2 r9819"
   sodipodi:docname="css3.svg">
  <defs
     id="defs4" />
  <sodipodi:namedview
     id="base"
     pagecolor="#000000"
     bordercolor="#666666"
     borderopacity="1.0"
     inkscape:pageopacity="1"
     inkscape:pageshadow="2"
     inkscape:zoom="2.8"
     inkscape:cx="81.629489"
     inkscape:cy="120.34508"
     inkscape:document-units="px"
     inkscape:current-layer="g3083"
     showgrid="false"
     inkscape:window-width="1366"
     inkscape:window-height="716"
     inkscape:window-x="-8"
     inkscape:window-y="-8"
     inkscape:window-maximized="1"
     fit-margin-top="0"
     fit-margin-left="0"
     fit-margin-right="0"
     fit-margin-bottom="0" />
  <metadata
     id="metadata7">
    <rdf:RDF>
      <cc:Work
         rdf:about="">
        <dc:format>image/svg+xml</dc:format>
        <dc:type
           rdf:resource="http://purl.org/dc/dcmitype/StillImage" />
        <dc:title />
      </cc:Work>
    </rdf:RDF>
  </metadata>
  <g
     inkscape:label="Calque 1"
     inkscape:groupmode="layer"
     id="layer1"
     transform="translate(4.0199689e-6,0.18617244)">
    <g
       id="g3083"
       transform="translate(-30.34557,-32.996529)">
      <g
         id="g3057"
         style="fill:#ffffff"
         transform="translate(6.0609159,-34.345187)" />
      <g
         id="g3016" />
      <g
         id="g3022"
         transform="matrix(0.47633111,0,0,0.47633111,-187.87692,10.522913)">
        <path
           transform="translate(6.060916,-34.345187)"
           id="path3059"
           d="m 685.164,96.681 h -24.688 l 25.674,27.859 v 13.261 h -52.882 v -15.526 h 25.669 l -25.669,-27.86 v -13.28 h 51.896 v 15.546 l 0,0 z m -62.378,0 h -24.688 l 25.673,27.859 v 13.261 h -52.882 v -15.526 h 25.672 l -25.672,-27.86 v -13.28 h 51.897 v 15.546 z m -61.768,0.631 h -26.64 v 24.313 h 26.64 v 16.176 H 515.444 V 81.135 h 45.574 v 16.177 z"
           inkscape:connector-curvature="0"
           style="fill:#ffffff" />
        <path
           inkscape:connector-curvature="0"
           id="polygon3067"
           style="opacity:0.70542632;fill:#ffffff"
           d="m 513.71899,188.77634 0.875,10 1.6875,18.875 0.75,8.375 0.125,0 89.6875,0 0.15625,0 52.53125,0 -3.40625,38.125 -49.28125,0 -44.28125,0 0.90625,10 1.6875,18.875 0.75,8.375 0.125,0 40.8125,0 45.96875,0 -4.34375,48.28125 -41.53125,11.21875 -0.0312,0 -41.46875,-11.1875 -2.65625,-29.71875 -20.125,0 -17.25,0 5.21875,58.46875 76.2812,21.1875 0.0312,-0.0312 76.34375,-21.15625 0.5625,-6.28125 6.34375,-70.78125 0.15625,-1.59375 9,-101.03125 0.875,-10 -93.21875,0 -0.15625,0 -93.125,0 z m 214.76693,244.11947 -121.811,33.77 -121.472,-33.721 -27.071,-303.62 297.45,0 z" />
        <polygon
           transform="translate(6.0609159,-34.345187)"
           style="opacity:0.5;fill:#ffffff"
           points="722.382,188.496 600.798,188.496 600.798,475.199 699.225,447.911 "
           id="polygon3063" />
      </g>
    </g>
  </g>
</svg>
