<?xml version="1.0" encoding="UTF-8" standalone="no"?>
<!-- Created with Inkscape (http://www.inkscape.org/) -->

<svg
   xmlns:dc="http://purl.org/dc/elements/1.1/"
   xmlns:cc="http://creativecommons.org/ns#"
   xmlns:rdf="http://www.w3.org/1999/02/22-rdf-syntax-ns#"
   xmlns:svg="http://www.w3.org/2000/svg"
   xmlns="http://www.w3.org/2000/svg"
   xmlns:sodipodi="http://sodipodi.sourceforge.net/DTD/sodipodi-0.dtd"
   xmlns:inkscape="http://www.inkscape.org/namespaces/inkscape"
   version="1.0"
   id="Layer_1"
   x="0px"
   y="0px"
   width="141.68469"
   height="200"
   viewBox="0 0 141.68469 200"
   enable-background="new 0 0 792 612"
   xml:space="preserve"
   inkscape:version="0.48.2 r9819"
   sodipodi:docname="css3-colored.svg"><metadata
   id="metadata49"><rdf:RDF><cc:Work
       rdf:about=""><dc:format>image/svg+xml</dc:format><dc:type
         rdf:resource="http://purl.org/dc/dcmitype/StillImage" /></cc:Work></rdf:RDF></metadata><defs
   id="defs47" /><sodipodi:namedview
   pagecolor="#ffffff"
   bordercolor="#666666"
   borderopacity="1"
   objecttolerance="10"
   gridtolerance="10"
   guidetolerance="10"
   inkscape:pageopacity="0"
   inkscape:pageshadow="2"
   inkscape:window-width="1366"
   inkscape:window-height="716"
   id="namedview45"
   showgrid="false"
   inkscape:zoom="1.0907007"
   inkscape:cx="182.3945"
   inkscape:cy="201.83177"
   inkscape:window-x="-8"
   inkscape:window-y="-8"
   inkscape:window-maximized="1"
   inkscape:current-layer="Layer_1"
   fit-margin-top="0"
   fit-margin-left="0"
   fit-margin-right="0"
   fit-margin-bottom="0" />


<g
   id="g3037"
   transform="matrix(0.47633111,0,0,0.47633111,-215.33548,-38.647125)"><g
     id="g25">
	<path
   id="path27"
   d="m 685.164,96.681 h -24.688 l 25.674,27.859 v 13.261 h -52.882 v -15.526 h 25.669 l -25.669,-27.86 v -13.28 h 51.896 v 15.546 l 0,0 z m -62.378,0 h -24.688 l 25.673,27.859 v 13.261 h -52.882 v -15.526 h 25.672 l -25.672,-27.86 v -13.28 h 51.897 v 15.546 z m -61.768,0.631 h -26.64 v 24.313 h 26.64 v 16.176 H 515.444 V 81.135 h 45.574 v 16.177 z"
   inkscape:connector-curvature="0"
   style="fill:#131313" />
</g><polygon
     id="polygon29"
     points="749.521,163.67 722.425,467.241 600.614,501.011 479.142,467.29 452.071,163.67 "
     style="fill:#1572b6" /><polygon
     id="polygon31"
     points="600.798,188.496 600.798,475.199 699.225,447.911 722.382,188.496 "
     style="fill:#33a9dc" /><g
     id="g33">
	<polygon
   id="polygon35"
   points="693.279,233.116 684.127,335.732 600.797,335.732 600.797,298.496 650.072,298.496 653.475,260.364 600.797,260.364 600.797,223.125 600.926,223.125 694.172,223.125 "
   style="fill:#ffffff" />
	<polygon
   id="polygon37"
   points="600.848,433.996 601.02,433.948 601.02,395.204 600.857,395.25 559.385,384.051 556.733,354.353 536.582,354.353 519.354,354.353 524.57,412.82 "
   style="fill:#ebebeb" />
	<polygon
   id="polygon39"
   points="646.907,334.156 642.423,384.026 600.891,395.236 600.891,433.978 677.23,412.82 677.79,406.53 684.268,334.156 "
   style="fill:#ffffff" />
	<polygon
   id="polygon41"
   points="510.232,251.994 508.535,233.116 507.645,223.125 600.926,223.125 600.926,246.253 600.926,260.272 600.926,260.364 511.098,260.364 511.098,260.364 510.979,260.364 "
   style="fill:#ebebeb" />
	<polygon
   id="polygon43"
   points="559.104,327.369 557.406,308.491 556.516,298.5 600.797,298.5 600.797,321.629 600.797,335.646 600.797,335.738 559.969,335.738 559.969,335.738 559.85,335.738 "
   style="fill:#ebebeb" />
</g></g>
</svg>