<?xml version="1.0" encoding="UTF-8" standalone="no"?>
<!-- Created with Inkscape (http://www.inkscape.org/) -->

<svg
   xmlns:dc="http://purl.org/dc/elements/1.1/"
   xmlns:cc="http://creativecommons.org/ns#"
   xmlns:rdf="http://www.w3.org/1999/02/22-rdf-syntax-ns#"
   xmlns:svg="http://www.w3.org/2000/svg"
   xmlns="http://www.w3.org/2000/svg"
   xmlns:sodipodi="http://sodipodi.sourceforge.net/DTD/sodipodi-0.dtd"
   xmlns:inkscape="http://www.inkscape.org/namespaces/inkscape"
   width="141.69313"
   height="200"
   id="svg2"
   version="1.1"
   inkscape:version="0.48.2 r9819"
   sodipodi:docname="html5.svg">
  <defs
     id="defs4" />
  <sodipodi:namedview
     id="base"
     pagecolor="#000000"
     bordercolor="#666666"
     borderopacity="1.0"
     inkscape:pageopacity="1"
     inkscape:pageshadow="2"
     inkscape:zoom="2.329033"
     inkscape:cx="103.41507"
     inkscape:cy="103.40611"
     inkscape:document-units="px"
     inkscape:current-layer="g3083"
     showgrid="false"
     inkscape:window-width="1366"
     inkscape:window-height="716"
     inkscape:window-x="-8"
     inkscape:window-y="-8"
     inkscape:window-maximized="1"
     fit-margin-top="0"
     fit-margin-left="0"
     fit-margin-right="0"
     fit-margin-bottom="0" />
  <metadata
     id="metadata7">
    <rdf:RDF>
      <cc:Work
         rdf:about="">
        <dc:format>image/svg+xml</dc:format>
        <dc:type
           rdf:resource="http://purl.org/dc/dcmitype/StillImage" />
        <dc:title />
      </cc:Work>
    </rdf:RDF>
  </metadata>
  <g
     inkscape:label="Calque 1"
     inkscape:groupmode="layer"
     id="layer1"
     transform="translate(0,0.10688448)">
    <g
       id="g3083"
       transform="translate(-30.34557,-32.996529)">
      <g
         id="g3057"
         style="fill:#ffffff"
         transform="translate(6.0609159,-34.345187)" />
      <g
         id="g3016" />
      <g
         id="g3006"
         transform="matrix(0.47635947,0,0,0.47635947,4.4440402,10.600874)">
        <path
           d="m 109.71899,191.37009 0.90625,10 9.15625,102.59375 83.1875,0 0.125,0 45.71875,0 -4.3125,48.3125 -41.40625,11.15625 -0.125,0.0312 0,0.0312 -0.0312,0 -41.46875,-11.21875 -2.65625,-29.6875 -20.15625,0 -17.21875,0 5.21875,58.46875 76.28125,21.1875 0.0312,-0.0312 0.125,-0.0312 76.21875,-21.125 0.5625,-6.28125 8.75,-98.03125 0.90625,-10 -10.03125,0 -76.40625,0 -0.125,0 -49.15625,0 -3.40625,-38.15625 52.6875,0 89.6875,0 0.125,0 0.75,-8.34375 1.71875,-18.875 0.875,-10 -93.15625,0 -0.125,0 -93.25,0 z m -28.275074,241.55072 -27.07,-303.62 297.450004,0 -27.098,303.571 -121.809,33.769 z"
           style="opacity:0.70542632;fill:#ffffff;fill-opacity:1"
           id="polygon3041"
           inkscape:connector-curvature="0" />
        <g
           transform="translate(6.0609159,-34.345187)"
           style="fill:#ffffff"
           id="g3943">
          <path
             style="fill:#ffffff"
             inkscape:connector-curvature="0"
             d="m 75.988,81.135 h 18.924 v 18.696 h 17.311 V 81.135 h 18.925 v 56.618 h -18.924 v -18.958 h -17.31 v 18.958 H 75.988 l 0,-56.618 0,0 z"
             id="path3045" />
          <path
             style="fill:#ffffff"
             inkscape:connector-curvature="0"
             d="m 156.032,99.91 h -16.66 V 81.135 h 52.252 V 99.91 h -16.667 v 37.843 H 156.033 V 99.91 h -10e-4 z"
             id="path3047" />
          <path
             style="fill:#ffffff"
             inkscape:connector-curvature="0"
             d="m 199.917,81.135 h 19.733 l 12.137,19.894 12.127,-19.894 h 19.739 v 56.618 H 244.807 V 109.69 l -13.021,20.13 h -0.325 l -13.028,-20.13 v 28.063 H 199.916 V 81.135 z"
             id="path3049" />
          <path
             style="fill:#ffffff"
             inkscape:connector-curvature="0"
             d="M 273.071,81.135 H 292 v 37.903 h 26.612 v 18.714 H 273.07 V 81.135 z"
             id="path3051" />
        </g>
        <polygon
           transform="translate(6.0609159,-34.345187)"
           id="polygon3039"
           points="197.038,188.471 197.038,475.175 295.465,447.887 318.623,188.471 "
           style="opacity:0.5;fill:#ffffff" />
      </g>
    </g>
  </g>
</svg>
