<?xml version="1.0" encoding="UTF-8" standalone="no"?>
<!-- Created with Inkscape (http://www.inkscape.org/) -->

<svg
   xmlns:dc="http://purl.org/dc/elements/1.1/"
   xmlns:cc="http://creativecommons.org/ns#"
   xmlns:rdf="http://www.w3.org/1999/02/22-rdf-syntax-ns#"
   xmlns:svg="http://www.w3.org/2000/svg"
   xmlns="http://www.w3.org/2000/svg"
   xmlns:xlink="http://www.w3.org/1999/xlink"
   xmlns:sodipodi="http://sodipodi.sourceforge.net/DTD/sodipodi-0.dtd"
   xmlns:inkscape="http://www.inkscape.org/namespaces/inkscape"
   version="1.1"
   width="150"
   height="44.267925"
   id="svg2"
   inkscape:version="0.48.2 r9819"
   sodipodi:docname="mariadb-colored.svg">
  <metadata
     id="metadata78">
    <rdf:RDF>
      <cc:Work
         rdf:about="">
        <dc:format>image/svg+xml</dc:format>
        <dc:type
           rdf:resource="http://purl.org/dc/dcmitype/StillImage" />
      </cc:Work>
    </rdf:RDF>
  </metadata>
  <sodipodi:namedview
     pagecolor="#ffffff"
     bordercolor="#666666"
     borderopacity="1"
     objecttolerance="10"
     gridtolerance="10"
     guidetolerance="10"
     inkscape:pageopacity="0"
     inkscape:pageshadow="2"
     inkscape:window-width="1366"
     inkscape:window-height="716"
     id="namedview76"
     showgrid="false"
     fit-margin-top="0"
     fit-margin-left="0"
     fit-margin-right="0"
     fit-margin-bottom="0"
     inkscape:zoom="0.8465583"
     inkscape:cx="202.312"
     inkscape:cy="59.706107"
     inkscape:window-x="-8"
     inkscape:window-y="-8"
     inkscape:window-maximized="1"
     inkscape:current-layer="svg2" />
  <defs
     id="defs4">
    <radialGradient
       cx="341.46109"
       cy="3.3982766"
       r="19.3125"
       fx="341.46109"
       fy="3.3982766"
       id="radialGradient4419"
       xlink:href="#linearGradient4033"
       gradientUnits="userSpaceOnUse"
       gradientTransform="matrix(0.107955,0.39293,-1.4450272,0.3970113,378.33274,162.03756)" />
    <linearGradient
       id="linearGradient4033">
      <stop
         id="stop4035"
         style="stop-color:#ffffff;stop-opacity:1"
         offset="0" />
      <stop
         id="stop4037"
         style="stop-color:#ffffff;stop-opacity:0"
         offset="1" />
    </linearGradient>
    <linearGradient
       x1="304.5"
       y1="111.74571"
       x2="309.95688"
       y2="84.313332"
       id="linearGradient4421"
       xlink:href="#linearGradient3898"
       gradientUnits="userSpaceOnUse"
       gradientTransform="translate(60.27352,293.21327)" />
    <linearGradient
       id="linearGradient3898">
      <stop
         id="stop3900"
         style="stop-color:#8b5e3c;stop-opacity:1"
         offset="0" />
      <stop
         id="stop3902"
         style="stop-color:#8b5e3c;stop-opacity:0"
         offset="1" />
    </linearGradient>
    <linearGradient
       x1="332.70831"
       y1="90.097427"
       x2="335.42188"
       y2="66.260406"
       id="linearGradient4423"
       xlink:href="#linearGradient3913"
       gradientUnits="userSpaceOnUse"
       gradientTransform="translate(60.28457,293.21327)" />
    <linearGradient
       id="linearGradient3913">
      <stop
         id="stop3915"
         style="stop-color:#8b5e3c;stop-opacity:1"
         offset="0" />
      <stop
         id="stop3917"
         style="stop-color:#8b5e3c;stop-opacity:0"
         offset="1" />
    </linearGradient>
    <linearGradient
       x1="253.8125"
       y1="63.15625"
       x2="261.3125"
       y2="76.328125"
       id="linearGradient4425"
       xlink:href="#linearGradient3957"
       gradientUnits="userSpaceOnUse"
       gradientTransform="translate(60.28457,293.21327)" />
    <linearGradient
       id="linearGradient3957">
      <stop
         id="stop3959"
         style="stop-color:#ffffff;stop-opacity:1"
         offset="0" />
      <stop
         id="stop3961"
         style="stop-color:#ffffff;stop-opacity:0"
         offset="1" />
    </linearGradient>
    <linearGradient
       x1="267.73993"
       y1="101.21025"
       x2="265.2366"
       y2="85.653893"
       id="linearGradient4427"
       xlink:href="#linearGradient4005"
       gradientUnits="userSpaceOnUse"
       gradientTransform="translate(60.28457,293.21327)" />
    <linearGradient
       id="linearGradient4005">
      <stop
         id="stop4007"
         style="stop-color:#543824;stop-opacity:1"
         offset="0" />
      <stop
         id="stop4009"
         style="stop-color:#8b5e3c;stop-opacity:0"
         offset="1" />
    </linearGradient>
    <radialGradient
       cx="343.73807"
       cy="56.988503"
       r="34.53125"
       fx="343.73807"
       fy="56.988503"
       id="radialGradient4429"
       xlink:href="#linearGradient4054"
       gradientUnits="userSpaceOnUse"
       gradientTransform="matrix(0.2940946,-1.3265453,0.3720518,0.08248379,280.04734,815.82697)" />
    <linearGradient
       id="linearGradient4054">
      <stop
         id="stop4056"
         style="stop-color:#543824;stop-opacity:1"
         offset="0" />
      <stop
         id="stop4058"
         style="stop-color:#8b5e3c;stop-opacity:0"
         offset="1" />
    </linearGradient>
    <linearGradient
       x1="195.59375"
       y1="96.763786"
       x2="248.625"
       y2="96.763786"
       id="linearGradient4431"
       xlink:href="#linearGradient4080"
       gradientUnits="userSpaceOnUse"
       gradientTransform="translate(60.28457,293.21327)" />
    <linearGradient
       id="linearGradient4080">
      <stop
         id="stop4082"
         style="stop-color:#c49a6c;stop-opacity:1"
         offset="0" />
      <stop
         id="stop4084"
         style="stop-color:#c49a6c;stop-opacity:0"
         offset="1" />
    </linearGradient>
    <radialGradient
       cx="197.6301"
       cy="91.405624"
       r="18.125"
       fx="197.6301"
       fy="91.405624"
       id="radialGradient4433"
       xlink:href="#linearGradient4020"
       gradientUnits="userSpaceOnUse"
       gradientTransform="matrix(0.3695622,0.8004946,-1.8857318,0.8705819,351.14512,155.15227)" />
    <linearGradient
       id="linearGradient4020">
      <stop
         id="stop4022"
         style="stop-color:#ffffff;stop-opacity:1"
         offset="0" />
      <stop
         id="stop4024"
         style="stop-color:#ffffff;stop-opacity:0"
         offset="1" />
    </linearGradient>
    <radialGradient
       cx="246.81799"
       cy="20.586987"
       r="49.28125"
       fx="246.81799"
       fy="20.586987"
       id="radialGradient4435"
       xlink:href="#linearGradient4093"
       gradientUnits="userSpaceOnUse"
       gradientTransform="matrix(0.155495,0.2729061,-0.5361557,0.3054864,325.59971,269.41964)" />
    <linearGradient
       id="linearGradient4093">
      <stop
         id="stop4095"
         style="stop-color:#ffffff;stop-opacity:1"
         offset="0" />
      <stop
         id="stop4097"
         style="stop-color:#ffffff;stop-opacity:0"
         offset="1" />
    </linearGradient>
  </defs>
  <g
     transform="matrix(0.37071523,0,0,0.37071523,-40.185942,-175.48601)"
     id="layer1">
    <g
       transform="translate(1582.2202,194.89325)"
       id="g4349">
      <g
         transform="translate(-1726.7658,-14.177857)"
         id="g4351">
        <g
           id="g4353">
          <path
             d="m 428.82171,292.65922 c -2.77907,0.0888 -1.90018,0.88955 -7.90517,2.36733 -6.06394,1.49229 -13.47115,1.0347 -20.00108,3.77329 -19.493,8.175 -23.40401,36.11599 -41.125,46.125 -13.246,7.482 -26.60999,8.07875 -38.625,11.84375 -7.896,2.476 -16.5335,7.55376 -23.6875,13.71875 -5.553,4.787 -5.69799,8.99601 -11.5,15 -6.206,6.422 -24.66525,0.10852 -33.03125,9.9375 2.695,2.725 3.87651,3.48826 9.1875,2.78125 -1.09957,2.08409 -7.58131,3.84041 -6.3125,6.90625 1.33506,3.22592 17.00519,5.41274 31.25,-3.1875 6.634,-4.00525 11.91801,-9.77824 22.25,-11.15625 13.37,-1.782 28.77201,1.14301 44.25,3.375 -2.295,6.843 -6.90274,11.39375 -10.59375,16.84375 -1.143,1.231 2.29574,1.36899 6.21875,0.625 7.057,-1.745 12.14276,-3.15 17.46875,-6.25 6.543,-3.809 7.53451,-13.57449 15.5625,-15.6875 4.473,6.875 16.63853,8.49901 24.1875,3 -6.624,-1.875 -8.45473,-15.9745 -6.21875,-22.1875 2.118,-5.881 4.21078,-15.2885 6.34375,-23.0625 2.29,-8.349 3.13483,-18.87215 5.90625,-23.125 4.16965,-6.39849 8.77695,-8.59575 12.77692,-12.2038 3.99996,-3.60805 7.66121,-7.1202 7.54106,-15.37616 -0.0387,-2.6592 -1.41364,-4.14149 -3.94298,-4.06066 z"
             id="path4355"
             style="fill:#002b64;fill-opacity:1;fill-rule:evenodd;stroke:none"
             inkscape:connector-curvature="0" />
          <path
             d="m 258.70071,404.52409 c 10.144,1.453 16.313,0 24.459,-3.533 6.931,-3.006 13.625,-9.203 21.81,-11.83 12.021,-3.857 25.203,0.005 38.053,0.775 3.129,0.188 6.238,0.19 9.307,-0.144 4.787,-2.942 4.688,-13.947 9.347,-14.955 -0.137,15.44 -6.467,24.691 -13.087,33.649 13.952,-2.464 22.301,-10.534 27.94,-21.312 1.711,-3.268 3.172,-6.784 4.464,-10.469 1.997,1.533 0.865,6.197 1.869,8.724 9.61,-5.353 15.113,-17.57 18.757,-29.926 4.216,-14.3 5.942,-28.78 8.661,-33.011 2.654,-4.13 6.784,-6.676 10.554,-9.32 4.284,-3.006 8.105,-6.139 8.765,-11.867 -4.518,-0.418 -5.563,-1.463 -6.231,-3.74 -2.262,1.275 -4.342,1.548 -6.692,1.618 -2.039,0.062 -4.279,-0.029 -7.015,0.252 -22.627,2.324 -25.502,27.263 -40.005,41.401 -1.055,1.028 -2.196,1.987 -3.402,2.887 -5.079,3.785 -11.31,6.49 -17.04,8.68 -9.275,3.544 -18.093,3.796 -26.795,6.855 -6.388,2.245 -12.879,5.502 -18.126,9.093 -1.312,0.897 -2.548,1.816 -3.685,2.746 -3.079,2.519 -5.1,5.314 -7.055,8.189 -2.016,2.963 -3.963,6.011 -6.931,8.923 -4.808,4.721 -22.774,1.377 -29.099,5.755 -0.705,0.487 -1.265,1.072 -1.646,1.774 3.451,1.568 5.756,0.606 9.726,1.045 0.521,3.767 -8.191,6.006 -6.903,7.741 z"
             id="path4357"
             style="fill:#c49a6c;stroke:none"
             inkscape:connector-curvature="0" />
          <path
             d="m 395.78457,377.38405 c 0.27,4.322 2.779,12.897 4.994,14.981 -4.338,1.055 -11.811,-0.688 -13.728,-3.748 0.985,-4.418 6.111,-8.457 8.734,-11.233 z"
             id="path4359"
             style="fill:#8b5e3c;fill-rule:evenodd"
             inkscape:connector-curvature="0" />
          <path
             d="m 423.37832,297.55702 c -2.262,1.275 -4.3375,1.555 -6.6875,1.625 -2.03901,0.062 -4.29525,-0.031 -7.03125,0.25 -8.42371,0.86519 -14.11978,4.87151 -18.6875,10.28125 l 16.375,21.90625 c 0.97225,-4.19012 1.8699,-7.46373 2.9375,-9.125 2.65399,-4.13 6.7925,-6.6685 10.5625,-9.3125 4.284,-3.006 8.09,-6.147 8.75,-11.875 -4.51802,-0.418 -5.55075,-1.473 -6.21875,-3.75 z"
             id="path4361"
             style="fill:url(#radialGradient4419);fill-opacity:1;fill-rule:evenodd;stroke:none"
             inkscape:connector-curvature="0" />
          <path
             d="m 402.13957,308.79227 c 3.203,2.781 9.924,0.549 8.723,-4.984 -4.977,-0.412 -7.86,1.277 -8.723,4.984 z"
             id="path4363"
             style="fill:#002b64;fill-rule:evenodd"
             inkscape:connector-curvature="0" />
          <path
             d="m 424.47057,302.32627 c -0.852,1.787 -2.483,4.091 -2.483,8.64 -0.007,0.781 -0.593,1.316 -0.603,0.112 0.044,-4.446 1.221,-6.368 2.471,-8.894 0.581,-1.035 0.931,-0.608 0.615,0.142 z"
             id="path4365"
             style="fill:#002b64"
             inkscape:connector-curvature="0" />
          <path
             d="m 423.61257,301.65327 c -1.005,1.705 -3.425,4.815 -3.825,9.347 -0.074,0.777 -0.706,1.258 -0.61,0.057 0.436,-4.424 2.37,-7.193 3.838,-9.6 0.666,-0.979 0.979,-0.523 0.597,0.196 z"
             id="path4367"
             style="fill:#002b64"
             inkscape:connector-curvature="0" />
          <path
             d="m 422.83057,300.76127 c -1.145,1.614 -4.87,5.349 -5.649,9.832 -0.14,0.767 -0.81,1.195 -0.613,0.006 0.806,-4.373 4.017,-7.81 5.682,-10.083 0.746,-0.921 1.019,-0.44 0.58,0.245 z"
             id="path4369"
             style="fill:#002b64"
             inkscape:connector-curvature="0" />
          <path
             d="m 422.13257,299.76627 c -1.36,1.437 -5.801,6.2 -7.201,10.528 -0.248,0.74 -0.971,1.07 -0.608,-0.08 1.412,-4.216 5.301,-8.757 7.269,-10.773 0.869,-0.807 1.071,-0.292 0.54,0.325 z"
             id="path4371"
             style="fill:#002b64"
             inkscape:connector-curvature="0" />
          <path
             d="m 366.32016,377.96847 c -3.81611,0.82922 -4.7792,0.73981 -4.98129,2.48006 -0.20209,1.74026 -0.48881,3.39615 -0.84871,4.97905 -0.71979,3.16579 -1.73227,6.03961 -2.94571,8.71251 -2.42687,5.34579 -5.6576,9.88784 -8.95843,14.35443 13.95199,-2.464 22.2985,-10.5345 27.9375,-21.3125 1.69641,-3.24015 3.15365,-6.72427 4.4375,-10.375 -0.3085,-0.7335 -0.83989,-0.75918 -3.0625,-1.0625 -3.33583,0.11488 -7.77165,1.39678 -11.57836,2.22395 z"
             id="path4373"
             style="fill:url(#linearGradient4421);fill-opacity:1;stroke:none"
             inkscape:connector-curvature="0" />
          <path
             d="m 410.44082,322.24452 c -1.00885,0.23667 -5.46322,1.06723 -9.1875,4.46875 -3.75823,3.43252 -3.96588,14.95795 -5.5625,21.15625 -1.60729,6.23975 -6.05847,20.03989 -8.46875,23.21875 -2.41029,3.17886 -4.4666,4.21079 -6.25,5.53125 0.05,0.0524 0.0791,0.12648 0.125,0.1875 1.85355,1.61362 0.79514,6.14302 1.78125,8.625 9.61002,-5.353 15.106,-17.5815 18.75,-29.9375 4.216,-14.3 5.93725,-28.769 8.65625,-33 0.0538,-0.0838 0.10122,-0.16752 0.15625,-0.25 z"
             id="path4375"
             style="fill:url(#linearGradient4423);fill-opacity:1;fill-rule:evenodd;stroke:none"
             inkscape:connector-curvature="0" />
          <path
             d="m 369.06582,341.36952 c -0.89157,0.82478 -1.82149,1.60419 -2.8125,2.34375 -4.85227,3.61603 -10.73693,6.23715 -16.25,8.375 -0.009,0.003 -0.0224,-0.003 -0.0312,0 -0.25027,0.097 -0.50147,0.21754 -0.75,0.3125 -0.57969,0.2215 -1.14242,0.42781 -1.71875,0.625 -0.0307,0.0104 -0.063,0.0209 -0.0937,0.0312 -0.54518,0.18543 -1.11394,0.36484 -1.65625,0.53125 -0.0409,0.0125 -0.0841,0.0188 -0.125,0.0312 -1.104,0.33613 -2.18831,0.63225 -3.28125,0.90625 -2.26859,0.56874 -4.522,1.02597 -6.75,1.46875 -4.45601,0.88557 -8.83643,1.7207 -13.1875,3.25 -6.38792,2.2452 -12.878,5.50275 -18.125,9.09375 -1.312,0.897 -2.5505,1.82 -3.6875,2.75 -3.079,2.519 -5.07625,5.3125 -7.03125,8.1875 -2.01599,2.963 -3.9695,6.0255 -6.9375,8.9375 -0.37721,0.37039 -0.84779,0.69002 -1.375,0.96875 l 0.0312,0.0312 70.34375,-29.8125 11.90625,6.90625 13.75,-19 -12.21875,-5.9375 z"
             id="path4377"
             style="fill:url(#linearGradient4425);fill-opacity:1;stroke:none"
             inkscape:connector-curvature="0" />
          <path
             d="m 340.09707,367.30702 c -9.79779,0.11213 -24.74089,0.69448 -36.71875,1.6875 -0.97115,0.691 -1.91488,1.38511 -2.78125,2.09375 -3.079,2.519 -5.07625,5.3125 -7.03125,8.1875 -2.01599,2.963 -3.9695,6.0255 -6.9375,8.9375 -4.80799,4.721 -22.76875,1.372 -29.09375,5.75 -0.705,0.487 -1.27525,1.07925 -1.65625,1.78125 3.451,1.568 5.74875,0.59225 9.71875,1.03125 0.521,3.767 -8.19425,6.015 -6.90625,7.75 10.144,1.453 16.32275,0.002 24.46875,-3.53125 6.931,-3.006 13.6275,-9.21675 21.8125,-11.84375 12.02101,-3.857 25.2125,0.0112 38.0625,0.78125 3.12901,0.188 6.21225,0.209 9.28125,-0.125 4.03904,-2.48231 4.62486,-10.6981 7.5,-13.8125 -0.64282,-2.49971 -2.54182,-5.24324 -7.15625,-7.40625 -1.76777,-0.82864 -3.93841,-1.23708 -6.40625,-1.28125 -1.66579,-0.0298 -3.75043,-0.0275 -6.15625,0 z"
             id="path4379"
             style="fill:url(#linearGradient4427);fill-opacity:1;fill-rule:evenodd;stroke:none"
             inkscape:connector-curvature="0" />
          <path
             d="m 390.56582,310.21327 c -7.45307,9.09631 -11.9664,21.91014 -20.90625,30.625 -1.05499,1.028 -2.20025,1.975 -3.40625,2.875 -5.07901,3.785 -11.30125,6.4975 -17.03125,8.6875 -0.87429,0.33407 -1.75854,0.62558 -2.625,0.90625 l 43.59375,25.96875 c 5.29427,-6.22968 8.84194,-14.98026 11.4375,-23.78125 4.216,-14.3 5.93725,-28.769 8.65625,-33 1.45153,-2.25879 3.34081,-4.03866 5.375,-5.625 l -25.09375,-6.65625 z"
             id="path4381"
             style="fill:url(#radialGradient4429);fill-opacity:1;fill-rule:evenodd;stroke:none"
             inkscape:connector-curvature="0" />
          <path
             d="m 296.81582,374.86952 c -1.1992,1.43069 -2.2284,2.9039 -3.25,4.40625 -2.01599,2.963 -3.9695,6.0255 -6.9375,8.9375 -4.80799,4.721 -22.76875,1.372 -29.09375,5.75 -0.705,0.487 -1.27525,1.07925 -1.65625,1.78125 3.451,1.568 5.74875,0.59225 9.71875,1.03125 0.521,3.767 -8.19425,6.015 -6.90625,7.75 10.144,1.453 16.32275,0.002 24.46875,-3.53125 6.931,-3.006 13.6275,-9.21675 21.8125,-11.84375 1.29967,-0.41701 2.61257,-0.71854 3.9375,-0.96875 l -12.09375,-13.3125 z"
             id="path4383"
             style="fill:url(#linearGradient4431);fill-opacity:1;stroke:none"
             inkscape:connector-curvature="0" />
          <path
             d="m 285.87832,388.77577 c -5.67242,3.84822 -22.30256,1.00595 -28.34375,5.1875 -0.705,0.487 -1.27525,1.07925 -1.65625,1.78125 3.451,1.568 5.74875,0.59225 9.71875,1.03125 0.521,3.767 -8.19425,6.015 -6.90625,7.75 10.144,1.453 16.32275,0.002 24.46875,-3.53125 2.9858,-1.29495 5.93278,-3.1862 8.96875,-5.125 l -6.25,-7.09375 z"
             id="path4385"
             style="fill:url(#radialGradient4433);fill-opacity:1;fill-rule:evenodd;stroke:none"
             inkscape:connector-curvature="0" />
          <path
             d="m 395.69082,305.08827 c -10.8681,8.70643 -15.2285,25.21913 -26.03125,35.75 -1.05499,1.028 -2.20025,1.975 -3.40625,2.875 -5.07901,3.785 -11.30125,6.4975 -17.03125,8.6875 -9.27501,3.544 -18.1105,3.78475 -26.8125,6.84375 -2.77305,0.97456 -5.54832,2.16824 -8.25,3.46875 l 13.78125,25.5625 c 5.019,0.59933 10.08724,1.35625 15.09375,1.65625 1.8045,0.10842 3.58764,0.13782 5.375,0.0937 l 7.46875,-5.28125 c 1.71555,-4.19294 2.72459,-9.23816 5.8125,-9.90625 -0.0191,2.15397 -0.19336,4.16467 -0.4375,6.09375 l 41.46875,-29.40625 c 3.43402,-12.92446 5.09536,-25.19217 7.5625,-29.03125 0.71388,-1.1109 1.54576,-2.11682 2.4375,-3.03125 l -17.03125,-14.375 z"
             id="path4387"
             style="fill:url(#radialGradient4435);fill-opacity:1;stroke:none"
             inkscape:connector-curvature="0" />
        </g>
      </g>
      <g
         id="g4389"
         style="fill:#000000;fill-opacity:1">
        <g
           transform="translate(1.2626907,0)"
           id="g4391"
           style="font-size:58.79193115px;font-style:normal;font-variant:normal;font-weight:normal;font-stretch:normal;text-align:start;line-height:100%;writing-mode:lr-tb;text-anchor:start;fill:#a57242;fill-opacity:1;stroke:none;font-family:STHeiti;-inkscape-font-specification:STHeiti">
          <path
             d="m -1149.148,340.80866 0,31.21851 -3.939,0 0,-5.35006 c -3.5668,4.27221 -7.643,6.40832 -12.2288,6.40832 -4.5857,0 -8.466,-1.62658 -11.6408,-4.87973 -3.1355,-3.29234 -4.7033,-7.1922 -4.7033,-11.6996 0,-4.54655 1.5874,-8.42681 4.7621,-11.6408 3.1748,-3.25312 6.9767,-4.8797 11.4057,-4.87973 5.0952,3e-5 9.2303,2.17533 12.4051,6.5259 l 0,-5.70281 3.939,0 m -3.7039,15.75623 c 0,-3.56668 -1.1954,-6.56507 -3.5863,-8.99516 -2.3909,-2.46923 -5.3305,-3.70386 -8.8188,-3.70389 -3.4491,3e-5 -6.3691,1.27385 -8.76,3.82147 -2.3908,2.50848 -3.5863,5.48727 -3.5863,8.93638 0,3.44914 1.2151,6.44752 3.6451,8.99516 2.4301,2.50846 5.3305,3.76269 8.7012,3.76268 3.4099,10e-6 6.3299,-1.21502 8.76,-3.6451 2.4301,-2.43005 3.6451,-5.48723 3.6451,-9.17154"
             id="path4393"
             style="fill:#a57242;fill-opacity:1"
             inkscape:connector-curvature="0" />
        </g>
        <g
           transform="translate(0.50507628,0)"
           id="g4395"
           style="font-size:58.79193115px;font-style:normal;font-variant:normal;font-weight:normal;font-stretch:normal;text-align:start;line-height:100%;writing-mode:lr-tb;text-anchor:start;fill:#a57242;fill-opacity:1;stroke:none;font-family:STHeiti;-inkscape-font-specification:STHeiti">
          <path
             d="m -1139.4124,372.02717 0,-42.2126 8.76,0 c 5.9968,4e-5 10.3865,0.45078 13.1694,1.35221 2.822,0.86232 5.252,2.25373 7.2902,4.17423 2.0381,1.88138 3.6059,4.19386 4.7033,6.93744 1.0975,2.74366 1.6462,5.95761 1.6462,9.64188 0,3.64512 -0.8623,7.09424 -2.5868,10.34738 -1.6854,3.21397 -3.9979,5.64403 -6.9375,7.2902 -2.9004,1.64618 -7.0942,2.46927 -12.5814,2.46926 l -13.4634,0 m 4.0566,-3.99785 4.8798,0 c 5.0953,1e-5 8.7795,-0.25476 11.0529,-0.76429 2.3124,-0.50953 4.3309,-1.50899 6.0555,-2.99839 1.7246,-1.52858 3.0376,-3.37073 3.9391,-5.52644 0.9014,-2.15569 1.3522,-4.62495 1.3522,-7.40779 0,-2.78279 -0.5292,-5.35003 -1.5874,-7.70174 -1.0191,-2.35164 -2.4889,-4.29178 -4.4094,-5.8204 -1.9205,-1.52855 -4.1938,-2.54761 -6.8198,-3.05718 -2.5869,-0.54869 -6.4084,-0.82305 -11.4645,-0.82309 l -2.9984,0 0,34.09932"
             id="path4397"
             style="fill:#a57242;fill-opacity:1"
             inkscape:connector-curvature="0" />
        </g>
        <g
           transform="translate(0.50507628,0)"
           id="g4399"
           style="font-size:58.79193115px;font-style:normal;font-variant:normal;font-weight:normal;font-stretch:normal;text-align:start;line-height:100%;writing-mode:lr-tb;text-anchor:start;fill:#a57242;fill-opacity:1;stroke:none;font-family:STHeiti;-inkscape-font-specification:STHeiti">
          <path
             d="m -1193.8427,332.10745 c 0,-0.90143 0.3135,-1.68532 0.9407,-2.35168 0.6663,-0.66626 1.4502,-0.99941 2.3516,-0.99946 0.9407,5e-5 1.7246,0.3332 2.3517,0.99946 0.6663,0.62716 0.9995,1.41105 0.9995,2.35168 0,0.90152 -0.3332,1.68541 -0.9995,2.35168 -0.6271,0.62715 -1.411,0.94071 -2.3517,0.94067 -0.9014,4e-5 -1.6853,-0.33312 -2.3516,-0.99946 -0.6272,-0.66627 -0.9407,-1.43057 -0.9407,-2.29289 m 1.2934,8.70121 4.0567,0 0,31.21851 -4.0567,0 0,-31.21851"
             id="path4401"
             style="fill:#a57242;fill-opacity:1"
             inkscape:connector-curvature="0" />
        </g>
        <g
           id="g4403"
           style="font-size:58.79193115px;font-style:normal;font-variant:normal;font-weight:normal;font-stretch:normal;text-align:start;line-height:100%;writing-mode:lr-tb;text-anchor:start;fill:#a57242;fill-opacity:1;stroke:none;font-family:STHeiti;-inkscape-font-specification:STHeiti">
          <path
             d="m -1305.1533,372.02717 5.9968,-42.2126 0.6467,0 17.1672,34.62844 17.0497,-34.62844 0.6467,0 6.0556,42.2126 -4.1742,0 -4.1155,-30.21905 -14.9331,30.21905 -1.0583,0 -15.1095,-30.45422 -4.1154,30.45422 -4.0567,0"
             id="path4405"
             style="fill:#a57242;fill-opacity:1"
             inkscape:connector-curvature="0" />
        </g>
        <g
           transform="translate(-0.25253814,0)"
           id="g4407"
           style="font-size:58.79193115px;font-style:normal;font-variant:normal;font-weight:normal;font-stretch:normal;text-align:start;line-height:100%;writing-mode:lr-tb;text-anchor:start;fill:#a57242;fill-opacity:1;stroke:none;font-family:STHeiti;-inkscape-font-specification:STHeiti">
          <path
             d="m -1218.7337,340.80866 0,31.21851 -3.9391,0 0,-5.35006 c -3.5667,4.27221 -7.643,6.40832 -12.2287,6.40832 -4.5858,0 -8.4661,-1.62658 -11.6408,-4.87973 -3.1356,-3.29234 -4.7034,-7.1922 -4.7034,-11.6996 0,-4.54655 1.5874,-8.42681 4.7622,-11.6408 3.1747,-3.25312 6.9766,-4.8797 11.4056,-4.87973 5.0953,3e-5 9.2303,2.17533 12.4051,6.5259 l 0,-5.70281 3.9391,0 m -3.7039,15.75623 c -10e-5,-3.56668 -1.1955,-6.56507 -3.5863,-8.99516 -2.3909,-2.46923 -5.3305,-3.70386 -8.8188,-3.70389 -3.4492,3e-5 -6.3692,1.27385 -8.76,3.82147 -2.3909,2.50848 -3.5863,5.48727 -3.5863,8.93638 0,3.44914 1.215,6.44752 3.6451,8.99516 2.43,2.50846 5.3304,3.76269 8.7012,3.76268 3.4099,10e-6 6.3299,-1.21502 8.76,-3.6451 2.43,-2.43005 3.645,-5.48723 3.6451,-9.17154"
             id="path4409"
             style="fill:#a57242;fill-opacity:1"
             inkscape:connector-curvature="0" />
        </g>
        <g
           transform="translate(-1.0101526,0)"
           id="g4411"
           style="font-size:58.79193115px;font-style:normal;font-variant:normal;font-weight:normal;font-stretch:normal;text-align:start;line-height:100%;writing-mode:lr-tb;text-anchor:start;fill:#a57242;fill-opacity:1;stroke:none;font-family:STHeiti;-inkscape-font-specification:STHeiti">
          <path
             d="m -1211.1735,340.80866 4.1155,0 0,4.52697 c 1.0974,-1.84211 2.1557,-3.19432 3.1747,-4.05664 1.0583,-0.86224 2.2145,-1.29339 3.4688,-1.29342 1.2934,3e-5 2.5868,0.35279 3.8802,1.05825 l -2.1165,3.40994 c -0.5879,-0.35272 -1.1954,-0.5291 -1.8225,-0.52913 -1.2151,3e-5 -2.3713,0.62714 -3.4688,1.88134 -1.0582,1.25426 -1.8421,2.88083 -2.3516,4.87973 -0.5096,1.95975 -0.7643,5.54606 -0.7643,10.75892 l 0,10.58255 -4.1155,0 0,-31.21851"
             id="path4413"
             style="fill:#a57242;fill-opacity:1"
             inkscape:connector-curvature="0" />
        </g>
        <g
           transform="translate(1.0101526,0)"
           id="g4415"
           style="font-size:58.79193115px;font-style:normal;font-variant:normal;font-weight:normal;font-stretch:normal;text-align:start;line-height:100%;writing-mode:lr-tb;text-anchor:start;fill:#a57242;fill-opacity:1;stroke:none;font-family:STHeiti;-inkscape-font-specification:STHeiti">
          <path
             d="m -1095.5454,329.81457 8.3485,0 c 4.429,4e-5 7.7801,0.90152 10.0534,2.70442 2.3125,1.7638 3.4687,4.31145 3.4687,7.64295 0,1.84219 -0.4703,3.54715 -1.411,5.1149 -0.9015,1.52862 -2.2341,2.76325 -3.9978,3.70389 2.9004,0.9407 5.0953,2.35171 6.5847,4.23302 1.5285,1.88137 2.2928,4.11546 2.2929,6.70228 -1e-4,3.48834 -1.2739,6.38874 -3.8215,8.70121 -2.5477,2.27329 -5.84,3.40994 -9.877,3.40993 l -11.6409,0 0,-42.2126 m 4.1743,4.11543 0,13.52214 2.4104,0 c 3.6843,3e-5 6.4279,-0.58789 8.2309,-1.76375 1.8029,-1.17581 2.7044,-3.01796 2.7044,-5.52645 0,-4.15459 -2.822,-6.2319 -8.466,-6.23194 l -4.8797,0 m 0,17.75516 0,16.22658 5.2325,0 c 3.0179,0 5.2324,-0.29396 6.6434,-0.88188 1.4502,-0.62711 2.6261,-1.56778 3.5276,-2.82202 0.9014,-1.29341 1.3522,-2.60642 1.3522,-3.93905 0,-1.33261 -0.2548,-2.50844 -0.7643,-3.52752 -0.5096,-1.01904 -1.2739,-1.92052 -2.2929,-2.70443 -0.9799,-0.78387 -2.1753,-1.37179 -3.5863,-1.76376 -1.3718,-0.39192 -3.9587,-0.58789 -7.7605,-0.58792 l -2.3517,0"
             id="path4417"
             style="fill:#a57242;fill-opacity:1"
             inkscape:connector-curvature="0" />
        </g>
      </g>
    </g>
  </g>
</svg>
